P1
# Created by GIMP version 2.10.8 PNM plug-in
8 8
0000000000000010000001110011101001111100011011000111110000111000