P1
# Created by GIMP version 2.10.8 PNM plug-in
8 8
0011110001000010100100011001000110011101100000010100001000111100