P1
# Created by GIMP version 2.10.8 PNM plug-in
7 8
01111101000001101110110100011011001101000110000010111110