P1
# Created by GIMP version 2.10.8 PNM plug-in
7 8
00000000010001000100100001011111111000010100010010010001