P1
# Created by GIMP version 2.10.8 PNM plug-in
8 8
0000000000001111000000010011110100000100111101001001000011110000