P1
# Created by GIMP version 2.10.8 PNM plug-in
6 8
010010010010110011110011011110001100001100001100