P1
# Created by GIMP version 2.10.8 PNM plug-in
64 64
0000000000000000000000000000000000000000000000000000000000000000000000
0000000000000000000000000000000000000000000000000000000000000000000000
0000000000000000000000000000000000000000000000000000000000000000000000
1111100000000000000000000110000000000000000000000000000011111111100111
0000000000000000001101000000000000000000000000011110000000000101100000
0000000000011100100000000000000000000000011000000000000100111000000000
0000111100010000000000000000000000011100000000001000001100000000000011
1100001000000000000000000000011110000000001000000110000000000111110000
0100000000000000000000011111000000010000000011000000001111110000001000
0000000000000000011111100000010000000000110000001111110000110100000000
0000000000011111110000010000000000011000011111110111000100000000000000
0000011111111000100000000000001100010000011000000100000000000000000001
1111111110100000000000000110011111111000000100000000000000000001111111
1111000000000000000001111111111000000110000000000000000000111111110110
0000000000000000111111111000000010000000000000000000111111101111000000
0000000000011111111000000010000000000000000000111110011111100000000000
0000001111111000000010000000000000000000111001111111111000000000000000
0011111100000010000000000000000000110111111111111100000000000000000111
1100000010000000000000000000111111111111111110000000000000000011110000
0011000000000000000000011111111111111111000000000000000000110000000100
0000000000000000001111111111111111110000000000000000011000000100000000
0000000000000011111111111111111000000000000000001100000100000000000000
0000000001111111111111111100000000000000000110000100000000000000000000
0000111111111111111111000000000000000001100100000000000000000000000000
1111111111111111100000000000000000110110000000000000000000000000011111
1111111111110000000000000000011110000000000000000000000000001111111111
1111111000000000000000001110000000000000000000000000000111111111111111
1110000000000000000011000000000000000000000000000001111111111111111100
0000000000000001000000000000000000000000000000111111111111111110000000
0000000011000000000000000000000000000000011111111111111111000000000000
0011000000000000000000000000000000011111111111111111110000000000010100
0000000000000000000000000000110000000000111111111111110000010100000000
0000000000000000000001100100000000000000000000111000010110000000000000
0000000000000011000100000000000000000000001100100110000000000000000000
0000000110000010000000000000000000000100100010000000000000000000000000
1000000010000000000000000000001010100010000000000000000000000001111110
0001000000000000000000001001000010000000000000000000000000111111111111
1000000000000000001001100010000000000000000000000000011111110111111111
1111111000001000110010000000000000000000000000001111101111111111111111
1111111111110010000000000000000000000000001111101111111111111111111111
0111111110000000000000000000000000000111011111111111111111111111011111
1110000000000000000000000000000011011111111111111111111110111111111000
0000000000000000000000000001111111111111111111111110110000000000000000
0000000000000000000000000011111111111111111111000000000000000000000000
0000000000000000000000000000000111111110000000000000000000000000000000
0000000000000000000000000000000000000000000000000000000000000000000000
0000000000000000000000000000000000000000000000000000000000000000000000
0000000000000000000000000000000000000000000000000000000000000000000000
0000000000000000000000000000000000000000000000000000000000000000000000
0000000000000000000000000000000000000000000000000000000000000000000000
0000000000000000000000000000000000000000000000000000000000000000000000
0000000000000000000000000000000000000000000000000000000000000000000000
0000000000000000000000000000000000000000000000000000000000000000000000
0000000000000000000000000000000000000000000000000000000000000000000000
0000000000000000000000000000000000000000000000000000000000000000000000
0000000000000000000000000000000000000000000000000000000000000000000000
0000000000000000000000000000000000000000000000000000000000000000000000
0000000000000000000000000000000000000000000000000000000000000000000000
000000000000000000000000000000000000